<?xml version="1.0" encoding="UTF-8"?>
<svg version="1.1" xmlns="http://www.w3.org/2000/svg" width="117" height="121">
<path d="M0 0 C1.00675781 -0.00773438 2.01351562 -0.01546875 3.05078125 -0.0234375 C11.92618865 -0.000173 18.00420162 0.9052667 24.5 7.25 C26.25670469 9.96490725 26.5 10.96434047 26.5 14.25 C27.634375 13.734375 28.76875 13.21875 29.9375 12.6875 C34.58740959 10.95921502 38.74659784 10.75537355 43.5 12.25 C48.7965994 15.27557145 52.85672735 19.30571213 57.125 23.625 C58.10726562 24.59566406 58.10726562 24.59566406 59.109375 25.5859375 C68.01854106 34.53117306 68.01854106 34.53117306 69.03125 40.25 C68.94974191 48.07477676 68.06351522 51.68648478 62.5 57.25 C63.37011719 57.48783203 63.37011719 57.48783203 64.2578125 57.73046875 C70.92098292 59.72062361 75.49391611 61.81715478 79.13671875 68.05078125 C81.46905094 73.80336575 80.97236897 80.08542973 80.9375 86.1875 C80.95748047 87.42435547 80.97746094 88.66121094 80.99804688 89.93554688 C80.99375213 97.9710184 80.51764219 104.03550229 74.74609375 110.08984375 C64.61409697 116.23906858 51.40900457 114.41638339 39.9375 114.375 C39.12751556 114.37278442 38.31753113 114.37056885 37.48300171 114.36828613 C31.82175301 114.35017571 26.1609809 114.3069111 20.5 114.25 C19.45918274 114.24063416 19.45918274 114.24063416 18.39733887 114.2310791 C14.2010925 114.19070833 10.00749541 114.10865451 5.8125 114 C4.80050537 113.98598145 3.78851074 113.97196289 2.74584961 113.95751953 C-5.68770286 113.67037732 -13.93722699 111.77327214 -19.9375 105.4375 C-26.5503353 98.25137454 -27.61638165 90.54397395 -27.64526367 80.97875977 C-27.64862228 80.277117 -27.6519809 79.57547424 -27.65544128 78.85256958 C-27.66488742 76.54883013 -27.66689104 74.24516382 -27.66796875 71.94140625 C-27.67118521 70.33007274 -27.67454957 68.71873952 -27.67805481 67.10740662 C-27.68402984 63.73590417 -27.68589633 60.36442729 -27.68530273 56.99291992 C-27.68520108 52.68457902 -27.69886354 48.37640281 -27.71607494 44.06810093 C-27.72722168 40.74199172 -27.72922114 37.41592204 -27.72869301 34.08979607 C-27.72986869 32.50186533 -27.73426727 30.91393342 -27.74202538 29.32602119 C-27.75188163 27.10077654 -27.7489255 24.87588577 -27.74291992 22.65063477 C-27.74434494 21.38743912 -27.74576996 20.12424347 -27.74723816 18.82276917 C-27.43468027 14.30608294 -26.82970316 9.97966664 -24.01953125 6.32421875 C-23.45621094 5.86660156 -22.89289062 5.40898437 -22.3125 4.9375 C-21.76207031 4.46699219 -21.21164063 3.99648437 -20.64453125 3.51171875 C-14.13782507 -0.31645265 -7.33493064 -0.0563503 0 0 Z M-14.13549805 13.33061218 C-16.22112642 16.26437837 -15.89685203 18.78187583 -15.91992188 22.34838867 C-15.92839142 23.0674942 -15.93686096 23.78659973 -15.94558716 24.52749634 C-15.96900753 26.9078333 -15.96997771 29.28752519 -15.96875 31.66796875 C-15.97585181 33.32603717 -15.98355084 34.98410313 -15.99182129 36.64216614 C-16.00527997 40.12162088 -16.00683016 43.60084875 -16.00097656 47.08032227 C-15.99509834 51.52466142 -16.02558637 55.96790138 -16.06609344 60.41202831 C-16.09204141 63.83946019 -16.09484112 67.26663056 -16.09120178 70.69414711 C-16.09288839 72.33151306 -16.10248656 73.9688917 -16.12034607 75.60616112 C-16.43803802 86.89960834 -16.43803802 86.89960834 -11.8170166 96.93574524 C-9.77824183 98.97024461 -8.37657887 99.89042764 -5.5 100.25 C-3.11857695 99.03962819 -3.11857695 99.03962819 -0.5 97.25 C0.99093829 96.76299644 2.49217027 96.30687838 4 95.875 C8.25657195 94.51516337 10.68906195 92.82755752 13.5 89.25 C15.50566712 85.21664331 15.75754306 81.87455144 15.7746582 77.39599609 C15.77976913 76.72708847 15.78488007 76.05818085 15.79014587 75.3690033 C15.80398325 73.17038899 15.80309033 70.97209001 15.80078125 68.7734375 C15.80466994 67.24077234 15.80900496 65.70810825 15.81376648 64.17544556 C15.82121496 60.96946714 15.82094632 57.7635989 15.81567383 54.55761719 C15.80986508 50.44716449 15.82685027 46.33716033 15.8500185 42.22678185 C15.8647361 39.06466024 15.86563054 35.90264737 15.86250877 32.74049759 C15.86302246 31.22461683 15.86826913 29.70873006 15.87832069 28.19288254 C15.89063717 26.07669403 15.88392462 23.96138885 15.87231445 21.84521484 C15.87294388 20.64118011 15.8735733 19.43714539 15.8742218 18.19662476 C15.74069224 15.26667156 15.74069224 15.26667156 14.13847351 13.36206055 C11.71204187 11.71519908 9.75229286 11.86128233 6.84375 11.8515625 C5.73902344 11.84769531 4.63429688 11.84382812 3.49609375 11.83984375 C2.34238281 11.85144531 1.18867187 11.86304688 0 11.875 C-1.15371094 11.86339844 -2.30742187 11.85179687 -3.49609375 11.83984375 C-4.60082031 11.84371094 -5.70554687 11.84757813 -6.84375 11.8515625 C-8.36258789 11.85663818 -8.36258789 11.85663818 -9.91210938 11.86181641 C-12.45920781 12.05803611 -12.45920781 12.05803611 -14.13549805 13.33061218 Z M31.875 26.0625 C31.28460938 26.58457031 30.69421875 27.10664063 30.0859375 27.64453125 C28.1190893 29.63560172 26.61612289 31.32429534 26.25949097 34.1672821 C26.26393219 34.88898087 26.26837341 35.61067963 26.27294922 36.35424805 C26.27310028 37.17487228 26.27325134 37.99549652 26.27340698 38.84098816 C26.28372955 39.72232925 26.29405212 40.60367035 26.3046875 41.51171875 C26.3075174 42.41751175 26.31034729 43.32330475 26.31326294 44.25654602 C26.32446036 47.15033158 26.34956411 50.04380794 26.375 52.9375 C26.38503037 54.89908407 26.39415612 56.860673 26.40234375 58.82226562 C26.42439827 63.6316296 26.45892511 68.44076237 26.5 73.25 C30.08878679 73.25 30.43558561 72.71510496 32.94140625 70.3203125 C33.60317871 69.69415039 34.26495117 69.06798828 34.94677734 68.42285156 C35.64496582 67.74706055 36.3431543 67.07126953 37.0625 66.375 C37.77615723 65.69405273 38.48981445 65.01310547 39.22509766 64.31152344 C41.3259777 62.30033536 43.4152439 60.27788514 45.5 58.25 C46.05896973 57.70762695 46.61793945 57.16525391 47.19384766 56.60644531 C52.76369177 51.28202983 52.76369177 51.28202983 57.5 45.25 C57.2093205 41.37131771 56.09693273 39.33122052 53.4453125 36.55078125 C52.52298828 35.57334961 52.52298828 35.57334961 51.58203125 34.57617188 C50.93621094 33.91166016 50.29039063 33.24714844 49.625 32.5625 C48.98691406 31.88638672 48.34882812 31.21027344 47.69140625 30.51367188 C45.04675811 27.73927586 42.70521135 25.38680757 39.5 23.25 C35.21139551 23.25 34.83268814 23.38494532 31.875 26.0625 Z M32.0625 85.6875 C30.64087789 87.17588471 29.21577073 88.66094889 27.78710938 90.14257812 C21.43564808 95.74401484 21.43564808 95.74401484 17.5 102.25 C24.12020512 102.3260474 30.74029765 102.37859863 37.36083984 102.41479492 C39.61316131 102.42988395 41.86545339 102.45035755 44.11767578 102.47631836 C47.35456596 102.51269593 50.59106775 102.5297253 53.828125 102.54296875 C54.83554749 102.55845261 55.84296997 102.57393646 56.88092041 102.58988953 C57.82159363 102.59011612 58.76226685 102.59034271 59.73144531 102.59057617 C60.55751282 102.59723801 61.38358032 102.60389984 62.23468018 102.61076355 C65.06460273 102.16008418 66.43441708 101.20951121 68.5 99.25 C69.35244453 94.96788047 69.10223656 90.60699676 69.0625 86.25 C69.08634766 85.04859375 69.11019531 83.8471875 69.13476562 82.609375 C69.13283203 81.45953125 69.13089844 80.3096875 69.12890625 79.125 C69.12963135 78.07054688 69.13035645 77.01609375 69.13110352 75.9296875 C68.74383204 73.09682287 68.74383204 73.09682287 66.38476562 71.45483398 C50.46157743 64.80445029 42.19570732 74.63734723 32.0625 85.6875 Z " fill="#06DD71" transform="translate(32.5,3.75)"/>
<path d="M0 0 C1.00675781 -0.00773438 2.01351562 -0.01546875 3.05078125 -0.0234375 C11.92618865 -0.000173 18.00420162 0.9052667 24.5 7.25 C26.25670469 9.96490725 26.5 10.96434047 26.5 14.25 C27.634375 13.734375 28.76875 13.21875 29.9375 12.6875 C34.58740959 10.95921502 38.74659784 10.75537355 43.5 12.25 C48.7965994 15.27557145 52.85672735 19.30571213 57.125 23.625 C58.10726562 24.59566406 58.10726562 24.59566406 59.109375 25.5859375 C68.01854106 34.53117306 68.01854106 34.53117306 69.03125 40.25 C68.94974191 48.07477676 68.06351522 51.68648478 62.5 57.25 C63.37011719 57.48783203 63.37011719 57.48783203 64.2578125 57.73046875 C70.92098292 59.72062361 75.49391611 61.81715478 79.13671875 68.05078125 C81.46905094 73.80336575 80.97236897 80.08542973 80.9375 86.1875 C80.95748047 87.42435547 80.97746094 88.66121094 80.99804688 89.93554688 C80.99417346 97.18270596 80.47266194 102.12517241 76.5 108.25 C73.3125 111.25 73.3125 111.25 70.5 111.25 C70.5 110.59 70.5 109.93 70.5 109.25 C71.16 109.25 71.82 109.25 72.5 109.25 C72.5 107.93 72.5 106.61 72.5 105.25 C73.82 105.25 75.14 105.25 76.5 105.25 C77.65792475 101.5798994 77.61388663 98.12724396 77.59765625 94.296875 C77.5962413 93.63665344 77.59482635 92.97643188 77.59336853 92.29620361 C77.58779245 90.19742206 77.57524447 88.09874905 77.5625 86 C77.5574819 84.57291821 77.55291954 83.14583475 77.54882812 81.71875 C77.53783088 78.22913168 77.5205828 74.73957644 77.5 71.25 C74.035 71.745 74.035 71.745 70.5 72.25 C70.51047363 73.01666992 70.52094727 73.78333984 70.53173828 74.57324219 C70.57332699 78.04879474 70.59933551 81.52429491 70.625 85 C70.64175781 86.2065625 70.65851563 87.413125 70.67578125 88.65625 C70.68222656 89.81640625 70.68867187 90.9765625 70.6953125 92.171875 C70.70578613 93.24018555 70.71625977 94.30849609 70.72705078 95.40917969 C70.49802855 98.27466649 70.13919915 99.90322797 68.5 102.25 C65.66987873 103.19337376 63.95700082 103.37172829 61.02856445 103.36352539 C59.67750359 103.36341209 59.67750359 103.36341209 58.29914856 103.36329651 C57.33031235 103.35813522 56.36147614 103.35297394 55.36328125 103.34765625 C53.87141548 103.34553383 53.87141548 103.34553383 52.34941101 103.34336853 C49.17041018 103.33776761 45.99147957 103.32521496 42.8125 103.3125 C40.65820414 103.30748512 38.50390718 103.30292219 36.34960938 103.29882812 C31.06638226 103.28779788 25.78319615 103.27105886 20.5 103.25 C20.5 102.92 20.5 102.59 20.5 102.25 C22.47577026 102.220271 22.47577026 102.220271 24.49145508 102.18994141 C29.37251088 102.11394159 34.25326638 102.02521552 39.1340332 101.93261719 C41.24757972 101.89430419 43.36119196 101.85945543 45.47485352 101.828125 C48.5108186 101.78252496 51.54633028 101.72452217 54.58203125 101.6640625 C55.52899368 101.65251129 56.47595612 101.64096008 57.45161438 101.62905884 C58.33230087 101.60918915 59.21298737 101.58931946 60.12036133 101.56884766 C60.89535477 101.55552399 61.67034821 101.54220032 62.46882629 101.5284729 C64.81104803 101.35791565 64.81104803 101.35791565 67.5 99.25 C67.91737872 96.53516406 67.91737872 96.53516406 67.79296875 93.3671875 C67.78330078 92.20058594 67.77363281 91.03398438 67.76367188 89.83203125 C67.73853516 88.60871094 67.71339844 87.38539062 67.6875 86.125 C67.67396484 84.89394531 67.66042969 83.66289063 67.64648438 82.39453125 C67.61103543 79.34592157 67.56162079 76.298175 67.5 73.25 C62.15244774 70.47812672 56.97477285 69.00947053 50.90234375 70.22314453 C41.75697891 74.13223036 33.91454188 84.93180571 27.5 92.25 C26.84 90.93 26.18 89.61 25.5 88.25 C26.16 87.92 26.82 87.59 27.5 87.25 C27.005 83.785 27.005 83.785 26.5 80.25 C27.49 79.92 28.48 79.59 29.5 79.25 C29.17 78.26 28.84 77.27 28.5 76.25 C27.18 75.92 25.86 75.59 24.5 75.25 C24.5 60.4 24.5 45.55 24.5 30.25 C25.82 29.92 27.14 29.59 28.5 29.25 C28.005 30.735 28.005 30.735 27.5 32.25 C27.41432754 33.61592183 27.38226353 34.98564858 27.38647461 36.35424805 C27.38655014 37.17487228 27.38662567 37.99549652 27.38670349 38.84098816 C27.39186478 39.72232925 27.39702606 40.60367035 27.40234375 41.51171875 C27.40446617 42.87040825 27.40446617 42.87040825 27.40663147 44.25654602 C27.41222999 47.15023091 27.42478219 50.04383849 27.4375 52.9375 C27.44251519 54.89908742 27.44707807 56.86067606 27.45117188 58.82226562 C27.46219893 63.63154021 27.47946253 68.440757 27.5 73.25 C28.22296013 72.62981491 28.22296013 72.62981491 28.96052551 71.99710083 C29.59206039 71.45552338 30.22359528 70.91394592 30.87426758 70.35595703 C31.81379021 69.55014694 31.81379021 69.55014694 32.77229309 68.72805786 C34.01454347 67.66530935 35.26160814 66.60817877 36.51171875 65.5546875 C40.81544211 61.88297946 44.86696225 57.98827012 48.875 54 C49.39924561 53.48034668 49.92349121 52.96069336 50.46362305 52.42529297 C54.87425356 48.40947129 54.87425356 48.40947129 56.5234375 43.01171875 C54.98686896 38.86532961 52.17035249 36.20301976 49.125 33.0625 C48.23941406 32.11987305 48.23941406 32.11987305 47.3359375 31.15820312 C44.80423393 28.49250173 42.57875439 26.30250293 39.5 24.25 C35.66896958 24.56925253 33.73319447 25.09453702 30.5 27.25 C30.5 26.26 30.5 25.27 30.5 24.25 C29.84 23.92 29.18 23.59 28.5 23.25 C29.82 23.25 31.14 23.25 32.5 23.25 C32.46877057 21.28243548 32.46877057 21.28243548 31.5 19.25 C28.50384054 17.9454344 28.50384054 17.9454344 25.5 17.25 C25.005 14.28 25.005 14.28 24.5 11.25 C22.85 11.58 21.2 11.91 19.5 12.25 C19.5 11.59 19.5 10.93 19.5 10.25 C18.84 10.25 18.18 10.25 17.5 10.25 C17.17 34.67 16.84 59.09 16.5 84.25 C16.17 84.25 15.84 84.25 15.5 84.25 C15.17 60.82 14.84 37.39 14.5 13.25 C4.93 13.25 -4.64 13.25 -14.5 13.25 C-14.83 38.66 -15.16 64.07 -15.5 90.25 C-16.16 90.25 -16.82 90.25 -17.5 90.25 C-17.83 63.52 -18.16 36.79 -18.5 9.25 C-20.81 9.58 -23.12 9.91 -25.5 10.25 C-23.99373726 6.41587665 -21.90731799 4.52154533 -18.5 2.25 C-12.34359253 -0.0434041 -6.52078482 -0.05009566 0 0 Z " fill="#0CD670" transform="translate(32.5,3.75)"/>
<path d="M0 0 C0.33 1.32 0.66 2.64 1 4 C2.65 4 4.3 4 6 4 C6.33 4.99 6.66 5.98 7 7 C6.34 7 5.68 7 5 7 C5.33 8.32 5.66 9.64 6 11 C8.64 11.33 11.28 11.66 14 12 C14.2475 12.78375 14.495 13.5675 14.75 14.375 C16.20140766 17.42295608 16.99550707 17.72536664 20 19 C21.83194199 20.62839288 22.90134907 21.80269814 24 24 C24.07033769 25.87379605 24.0843022 27.75001102 24.0625 29.625 C24.05347656 30.62789062 24.04445312 31.63078125 24.03515625 32.6640625 C24.02355469 33.43492188 24.01195312 34.20578125 24 35 C23.67 35 23.34 35 23 35 C23 33.35 23 31.7 23 30 C19.77054284 32.65905085 19.77054284 32.65905085 18.75 36.5625 C18.87375 37.7690625 18.87375 37.7690625 19 39 C19 39.99 19 40.98 19 42 C17.515 41.505 17.515 41.505 16 41 C15.34 41.66 14.68 42.32 14 43 C13.01 43 12.02 43 11 43 C10.67 41.68 10.34 40.36 10 39 C11.98 38.34 13.96 37.68 16 37 C16 34.03 16 31.06 16 28 C14.68 27.34 13.36 26.68 12 26 C10.47607422 24.59545898 10.47607422 24.59545898 9.0546875 22.99609375 C8.53519531 22.42052734 8.01570313 21.84496094 7.48046875 21.25195312 C6.95066406 20.65318359 6.42085937 20.05441406 5.875 19.4375 C2.37353696 15.1813004 2.37353696 15.1813004 -2 12 C-2 10.68 -2 9.36 -2 8 C-3.98 8 -5.96 8 -8 8 C-8.33 6.02 -8.66 4.04 -9 2 C-5.5647952 -0.29013653 -4.014669 -0.17842973 0 0 Z " fill="#06DC70" transform="translate(75,17)"/>
<path d="M0 0 C0.33 0 0.66 0 1 0 C1 27.39 1 54.78 1 83 C1.66 83 2.32 83 3 83 C3 83.99 3 84.98 3 86 C3.99 86 4.98 86 6 86 C6.99 89.3 7.98 92.6 9 96 C3.40531768 91.89723297 0.86469068 88.22503314 -0.56613159 81.23377991 C-1.04235474 77.68431465 -1.1271481 74.27855998 -1.12939453 70.69702148 C-1.13202301 69.63973846 -1.13202301 69.63973846 -1.13470459 68.56109619 C-1.13908032 66.24773647 -1.13620058 63.93445415 -1.1328125 61.62109375 C-1.13348669 60.00496913 -1.13445768 58.38884461 -1.13571167 56.77272034 C-1.13718278 53.39282257 -1.13505267 50.01295131 -1.13037109 46.63305664 C-1.12466958 42.30662906 -1.1279592 37.98026347 -1.13394356 33.65383816 C-1.1375611 30.31923457 -1.13640517 26.98464562 -1.13381577 23.65004158 C-1.13315004 22.05488134 -1.13396251 20.45971976 -1.13629532 18.86456108 C-1.13884193 16.63419966 -1.13495317 14.403938 -1.12939453 12.17358398 C-1.12859894 10.90594711 -1.12780334 9.63831024 -1.12698364 8.33226013 C-1.0159951 5.41973769 -0.67772753 2.82663969 0 0 Z " fill="#2CC079" transform="translate(6,14)"/>
<path d="M0 0 C3.40312738 1.05875074 6.01353231 2.00902154 9 4 C9 4.99 9 5.98 9 7 C8.34 7 7.68 7 7 7 C7 6.34 7 5.68 7 5 C6.34 5 5.68 5 5 5 C4.67 29.42 4.34 53.84 4 79 C3.67 79 3.34 79 3 79 C2.505 43.855 2.505 43.855 2 8 C-7.57 8 -17.14 8 -27 8 C-26.67 7.34 -26.34 6.68 -26 6 C-23.41796875 5.62109375 -23.41796875 5.62109375 -20.1875 5.4375 C-16.64650812 5.22616187 -13.42077547 4.9243372 -10 4 C-8.2365625 3.814375 -8.2365625 3.814375 -6.4375 3.625 C-3.04762785 3.00865961 -1.99222595 2.69536452 0 0 Z " fill="#14BE6A" transform="translate(45,9)"/>
<path d="M0 0 C5.61 0 11.22 0 17 0 C17 0.66 17 1.32 17 2 C17.99 2.33 18.98 2.66 20 3 C20.05805933 7.24994263 20.09361654 11.49978324 20.125 15.75 C20.14175781 16.9565625 20.15851563 18.163125 20.17578125 19.40625 C20.18544922 21.14648438 20.18544922 21.14648438 20.1953125 22.921875 C20.21102295 24.52434082 20.21102295 24.52434082 20.22705078 26.15917969 C19.99802855 29.02466649 19.63919915 30.65322797 18 33 C15.16987873 33.94337376 13.45700082 34.12172829 10.52856445 34.11352539 C9.17750359 34.11341209 9.17750359 34.11341209 7.79914856 34.11329651 C6.83031235 34.10813522 5.86147614 34.10297394 4.86328125 34.09765625 C3.37141548 34.09553383 3.37141548 34.09553383 1.84941101 34.09336853 C-1.32958982 34.08776761 -4.50852043 34.07521496 -7.6875 34.0625 C-9.84179586 34.05748512 -11.99609282 34.05292219 -14.15039062 34.04882812 C-19.43361774 34.03779788 -24.71680385 34.02105886 -30 34 C-30 33.67 -30 33.34 -30 33 C-28.02422974 32.970271 -28.02422974 32.970271 -26.00854492 32.93994141 C-21.12748912 32.86394159 -16.24673362 32.77521552 -11.3659668 32.68261719 C-9.25242028 32.64430419 -7.13880804 32.60945543 -5.02514648 32.578125 C-1.9891814 32.53252496 1.04633028 32.47452217 4.08203125 32.4140625 C5.02899368 32.40251129 5.97595612 32.39096008 6.95161438 32.37905884 C7.83230087 32.35918915 8.71298737 32.33931946 9.62036133 32.31884766 C10.39535477 32.30552399 11.17034821 32.29220032 11.96882629 32.2784729 C14.31104803 32.10791565 14.31104803 32.10791565 17 30 C17.41737872 27.28516406 17.41737872 27.28516406 17.29296875 24.1171875 C17.28330078 22.95058594 17.27363281 21.78398438 17.26367188 20.58203125 C17.23853516 19.35871094 17.21339844 18.13539062 17.1875 16.875 C17.17396484 15.64394531 17.16042969 14.41289063 17.14648438 13.14453125 C17.11103543 10.09592157 17.06162079 7.048175 17 4 C13.33629148 2.01491078 10.42798016 1.62567881 6.25 1.375 C4.49429688 1.26285156 4.49429688 1.26285156 2.703125 1.1484375 C1.36507812 1.07496094 1.36507812 1.07496094 0 1 C0 0.67 0 0.34 0 0 Z " fill="#28C676" transform="translate(83,73)"/>
<path d="M0 0 C1.00675781 -0.00773438 2.01351562 -0.01546875 3.05078125 -0.0234375 C15.82929988 0.01005796 15.82929988 0.01005796 20.4375 3.875 C20.9634375 4.555625 20.9634375 4.555625 21.5 5.25 C20.18 5.25 18.86 5.25 17.5 5.25 C17.5 4.59 17.5 3.93 17.5 3.25 C13.47922848 3.19156509 9.45856741 3.1562576 5.4375 3.125 C4.30376953 3.10824219 3.17003906 3.09148438 2.00195312 3.07421875 C-3.91848276 3.03969726 -8.92569927 3.20988177 -14.5 5.25 C-15.44875 5.559375 -16.3975 5.86875 -17.375 6.1875 C-18.07625 6.538125 -18.7775 6.88875 -19.5 7.25 C-19.83 8.24 -20.16 9.23 -20.5 10.25 C-22.15 10.25 -23.8 10.25 -25.5 10.25 C-23.99373726 6.41587665 -21.90731799 4.52154533 -18.5 2.25 C-12.34359253 -0.0434041 -6.52078482 -0.05009566 0 0 Z " fill="#1DC472" transform="translate(32.5,3.75)"/>
<path d="M0 0 C4.39685671 4.04973645 6.70934226 6.98766229 7.29052734 13.01098633 C7.33976386 16.61186967 7.37130831 20.21125479 7.375 23.8125 C7.39949219 25.05837891 7.42398438 26.30425781 7.44921875 27.58789062 C7.47242939 34.87989846 7.01190883 39.84097701 3 46 C-0.1875 49 -0.1875 49 -3 49 C-3 48.34 -3 47.68 -3 47 C-2.34 47 -1.68 47 -1 47 C-1 45.68 -1 44.36 -1 43 C0.32 43 1.64 43 3 43 C4.15792475 39.3298994 4.11388663 35.87724396 4.09765625 32.046875 C4.0962413 31.38665344 4.09482635 30.72643188 4.09336853 30.04620361 C4.08779245 27.94742206 4.07524447 25.84874905 4.0625 23.75 C4.0574819 22.32291821 4.05291954 20.89583475 4.04882812 19.46875 C4.03783088 15.97913168 4.0205828 12.48957644 4 9 C3.01 8.67 2.02 8.34 1 8 C0.67 5.36 0.34 2.72 0 0 Z " fill="#20B96E" transform="translate(106,66)"/>
<path d="M0 0 C0 14.66666667 0 29.33333333 0 44 C1.98 42.35 3.96 40.7 6 39 C6.66 39.33 7.32 39.66 8 40 C6.93283928 41.20205464 5.84561663 42.38632333 4.75 43.5625 C4.14671875 44.22378906 3.5434375 44.88507813 2.921875 45.56640625 C2.28765625 46.03949219 1.6534375 46.51257813 1 47 C-0.32 46.67 -1.64 46.34 -3 46 C-3 31.15 -3 16.3 -3 1 C-2.01 0.67 -1.02 0.34 0 0 Z " fill="#25C573" transform="translate(60,33)"/>
<path d="M0 0 C-2.4645769 2.4645769 -3.84036984 2.23659117 -7.20353699 2.25212097 C-7.92011978 2.24497574 -8.63670258 2.23783051 -9.375 2.23046875 C-10.12401077 2.23037308 -10.87302155 2.2302774 -11.64472961 2.23017883 C-14.09664608 2.22644084 -16.54816622 2.20748317 -19 2.1875 C-20.6786282 2.18064937 -22.35725783 2.17414041 -24.03588867 2.16796875 C-37.70356374 2.09633912 -51.34924868 1.69633462 -65 1 C-65 0.67 -65 0.34 -65 0 C-43.24155614 -1.19328689 -21.76874859 -0.86267385 0 0 Z " fill="#0DBB51" transform="translate(92,116)"/>
<path d="M0 0 C1.875 1.0625 1.875 1.0625 3 3 C2.55555556 9.44444444 2.55555556 9.44444444 1 11 C-2.4375 11.1875 -2.4375 11.1875 -6 11 C-8 9 -8 9 -8.3125 6.0625 C-8 3 -8 3 -6.8125 1.125 C-4.34492892 -0.40659584 -2.85480169 -0.42822025 0 0 Z " fill="#19C971" transform="translate(35,79)"/>
<path d="M0 0 C2.64005083 2.18956597 3.88265302 3.38047699 4.53125 6.8046875 C4.46665323 13.15131999 4.38319292 17.24110483 0 22 C-0.99 22.66 -1.98 23.32 -3 24 C-3.25028811 22.41986783 -3.47440946 20.83557694 -3.6875 19.25 C-3.87892578 17.92742188 -3.87892578 17.92742188 -4.07421875 16.578125 C-3.98321474 13.41693303 -3.19290886 12.22937052 -1 10 C-0.34 10 0.32 10 1 10 C1.08004482 6.4780279 1.04005702 3.38018531 0 0 Z " fill="#09DD6F" transform="translate(97,37)"/>
<path d="M0 0 C5.62621849 0.07887222 8.10753992 2.52996958 11.859375 6.32226562 C12.52453125 7.02029297 13.1896875 7.71832031 13.875 8.4375 C14.56335938 9.13166016 15.25171875 9.82582031 15.9609375 10.54101562 C21 15.70505487 21 15.70505487 21 18 C20.030625 17.67 19.06125 17.34 18.0625 17 C15.37850426 15.94826637 15.37850426 15.94826637 14 16 C13.67 14.35 13.34 12.7 13 11 C10.36 10.67 7.72 10.34 5 10 C4.67 8.35 4.34 6.7 4 5 C4.66 5 5.32 5 6 5 C5.67 4.34 5.34 3.68 5 3 C2.47266765 2.34444881 2.47266765 2.34444881 0 2 C0 1.34 0 0.68 0 0 Z " fill="#16D276" transform="translate(76,19)"/>
<path d="M0 0 C1.32 0.33 2.64 0.66 4 1 C-0.40843437 6.29012124 -5.07559794 11.18808428 -10 16 C-10.66 14.68 -11.32 13.36 -12 12 C-11.34 11.67 -10.68 11.34 -10 11 C-9.40929986 9.05396726 -9.40929986 9.05396726 -9 7 C-8.67 6.34 -8.34 5.68 -8 5 C-6.68 5.33 -5.36 5.66 -4 6 C-3.67 5.01 -3.34 4.02 -3 3 C-2.01 2.67 -1.02 2.34 0 2 C0 1.34 0 0.68 0 0 Z " fill="#0FD875" transform="translate(70,80)"/>
<path d="M0 0 C1.18771723 3.42943519 0.80226223 5.37784675 -0.4375 8.75 C-0.86869141 9.94882813 -0.86869141 9.94882813 -1.30859375 11.171875 C-1.53675781 11.77515625 -1.76492187 12.3784375 -2 13 C-2.969375 12.979375 -3.93875 12.95875 -4.9375 12.9375 C-9.33344515 12.92849192 -13.64436949 13.44690406 -18 14 C-15.35578277 12.23718851 -13.46970304 11.38285547 -10.5 10.4375 C-9.7265625 10.18871094 -8.953125 9.93992187 -8.15625 9.68359375 C-7.4446875 9.45800781 -6.733125 9.23242188 -6 9 C-5.01 8.67 -4.02 8.34 -3 8 C-1.81608777 5.62374655 -1.81608777 5.62374655 -1 3 C-0.67 2.01 -0.34 1.02 0 0 Z " fill="#1DC372" transform="translate(47,88)"/>
<path d="M0 0 C2.67089376 2.20547068 3.89002471 3.3704564 4.49609375 6.83984375 C4.47675781 7.86207031 4.45742187 8.88429688 4.4375 9.9375 C4.43621094 10.95714844 4.43492188 11.97679687 4.43359375 13.02734375 C3.94989431 16.34351739 2.95338267 18.30105143 1 21 C0.67 21 0.34 21 0 21 C0 19.35 0 17.7 0 16 C0.66 16 1.32 16 2 16 C1.85833643 14.08302063 1.71150416 12.16642277 1.5625 10.25 C1.48128906 9.18265625 1.40007812 8.1153125 1.31640625 7.015625 C1.05909227 4.56320038 0.68187782 2.36078709 0 0 Z " fill="#25BE75" transform="translate(97,37)"/>
<path d="M0 0 C0.33 0.66 0.66 1.32 1 2 C0.0625 4.125 0.0625 4.125 -1 6 C-1.99 6 -2.98 6 -4 6 C-4 6.99 -4 7.98 -4 9 C-4.66 9 -5.32 9 -6 9 C-6.66 10.32 -7.32 11.64 -8 13 C-9.32 12.67 -10.64 12.34 -12 12 C-8.04 8.04 -4.08 4.08 0 0 Z " fill="#1AC470" transform="translate(83,56)"/>
<path d="M0 0 C-2.14800843 2.36280927 -4.16680467 3.58340234 -7 5 C-7.33 5.66 -7.66 6.32 -8 7 C-9.65 7 -11.3 7 -13 7 C-9.87303606 0.02446506 -7.37889653 -0.36289655 0 0 Z " fill="#13CF72" transform="translate(20,7)"/>
<path d="M0 0 C0.33 0.99 0.66 1.98 1 3 C-0.86759004 6.51968892 -2.1486353 8.57431765 -5.75 10.375 C-6.4925 10.58125 -7.235 10.7875 -8 11 C-8 10.34 -8 9.68 -8 9 C-7.34 9 -6.68 9 -6 9 C-6 7.68 -6 6.36 -6 5 C-4.68 5 -3.36 5 -2 5 C-1.855625 4.360625 -1.71125 3.72125 -1.5625 3.0625 C-1 1 -1 1 0 0 Z " fill="#20CB75" transform="translate(111,104)"/>
<path d="M0 0 C0.33 0 0.66 0 1 0 C1 2.97 1 5.94 1 9 C-0.98 9.99 -0.98 9.99 -3 11 C-3.99 10.67 -4.98 10.34 -6 10 C-5.195625 9.0925 -4.39125 8.185 -3.5625 7.25 C-1.58857329 4.89690092 -0.36122533 3.13061954 0 0 Z " fill="#18C370" transform="translate(90,45)"/>
<path d="M0 0 C1.32 0.33 2.64 0.66 4 1 C1.36 3.64 -1.28 6.28 -4 9 C-4.33 7.68 -4.66 6.36 -5 5 C-4.34 5 -3.68 5 -3 5 C-2.67 4.01 -2.34 3.02 -2 2 C-1.34 2.33 -0.68 2.66 0 3 C0 2.01 0 1.02 0 0 Z " fill="#22CC7A" transform="translate(54,97)"/>
<path d="M0 0 C1.65 0 3.3 0 5 0 C5.28875 0.9075 5.5775 1.815 5.875 2.75 C6.76841716 5.33098291 7.75227117 7.58842326 9 10 C7.86800647 9.0919838 6.74467637 8.17316174 5.625 7.25 C4.99851562 6.73953125 4.37203125 6.2290625 3.7265625 5.703125 C1.91687682 3.91800519 0.99882545 2.32050356 0 0 Z " fill="#17C061" transform="translate(81,35)"/>
<path d="M0 0 C2.01136276 2.55991624 3.62845496 5.04590299 5 8 C3.35 8 1.7 8 0 8 C-0.66 6.68 -1.32 5.36 -2 4 C-1.34 4 -0.68 4 0 4 C0 2.68 0 1.36 0 0 Z " fill="#0FCF66" transform="translate(17,94)"/>
<path d="M0 0 C1.32 0.33 2.64 0.66 4 1 C3.04578192 2.14926266 2.08647955 3.29430541 1.125 4.4375 C0.59132813 5.07558594 0.05765625 5.71367188 -0.4921875 6.37109375 C-2 8 -2 8 -4 9 C-3.67 7.02 -3.34 5.04 -3 3 C-2.01 2.67 -1.02 2.34 0 2 C0 1.34 0 0.68 0 0 Z " fill="#1FCA79" transform="translate(70,80)"/>
<path d="M0 0 C1.15224028 0.92961422 2.29659176 1.8690125 3.4375 2.8125 C4.07558594 3.33457031 4.71367188 3.85664063 5.37109375 4.39453125 C7 6 7 6 8 9 C7.030625 8.67 6.06125 8.34 5.0625 8 C2.37850426 6.94826637 2.37850426 6.94826637 1 7 C0.67 4.69 0.34 2.38 0 0 Z " fill="#23C778" transform="translate(89,28)"/>
<path d="M0 0 C1.43836751 0.11458693 2.87570966 0.24209116 4.3125 0.375 C5.51326172 0.47941406 5.51326172 0.47941406 6.73828125 0.5859375 C9 1 9 1 12 3 C8.04 3 4.08 3 0 3 C0 2.01 0 1.02 0 0 Z " fill="#14B864" transform="translate(92,62)"/>
<path d="M0 0 C0.99 0 1.98 0 3 0 C3.99 3.3 4.98 6.6 6 10 C1.51057163 6.63292872 1.1897472 5.25471679 0 0 Z " fill="#16D075" transform="translate(9,100)"/>
<path d="M0 0 C1.65 0.33 3.3 0.66 5 1 C3.02 3.31 1.04 5.62 -1 8 C-2 6 -2 6 -1.0625 2.875 C-0.5365625 1.451875 -0.5365625 1.451875 0 0 Z " fill="#22CE7B" transform="translate(76,73)"/>
<path d="M0 0 C0.66 0 1.32 0 2 0 C2.33 1.65 2.66 3.3 3 5 C4.65 5.33 6.3 5.66 8 6 C8 6.33 8 6.66 8 7 C5.66705225 7.04241723 3.33297433 7.04092937 1 7 C0 6 0 6 -0.0625 2.9375 C-0.041875 1.968125 -0.02125 0.99875 0 0 Z " fill="#1BC873" transform="translate(28,83)"/>
<path d="M0 0 C0.1875 2.875 0.1875 2.875 0 6 C-0.99 6.66 -1.98 7.32 -3 8 C-3.33 5.69 -3.66 3.38 -4 1 C-2 0 -2 0 0 0 Z " fill="#0FD474" transform="translate(97,53)"/>
<path d="M0 0 C1.32 0 2.64 0 4 0 C3.67 1.65 3.34 3.3 3 5 C2.01 5.33 1.02 5.66 0 6 C0 4.02 0 2.04 0 0 Z " fill="#0ED572" transform="translate(59,28)"/>
<path d="M0 0 C3.67230705 3.07999946 4.56802365 5.2482602 5 10 C3 9 3 9 2.1484375 6.93359375 C1.89320312 6.10988281 1.63796875 5.28617188 1.375 4.4375 C1.11460938 3.61121094 0.85421875 2.78492188 0.5859375 1.93359375 C0.39257812 1.29550781 0.19921875 0.65742188 0 0 Z " fill="#24BB74" transform="translate(54,9)"/>
<path d="M0 0 C2.125 0.375 2.125 0.375 4 1 C2.35 2.65 0.7 4.3 -1 6 C-1.625 4.125 -1.625 4.125 -2 2 C-1.34 1.34 -0.68 0.68 0 0 Z " fill="#22CC7C" transform="translate(60,90)"/>
</svg>
